<svg xmlns="http://www.w3.org/2000/svg" viewBox="0 0 271.29 61.83"><defs><style>.cls-1{isolation:isolate;}.cls-2{fill:#1b88c1;}.cls-3{fill:#3bb54b;}.cls-14,.cls-4,.cls-5{fill:none;}.cls-4{stroke:#1b88c1;}.cls-4,.cls-5{stroke-linecap:round;stroke-linejoin:round;stroke-width:1.72px;}.cls-5{stroke:#3bb54b;}.cls-6{fill:#ff931e;}.cls-7{opacity:0.2;}.cls-12,.cls-7,.cls-9{mix-blend-mode:multiply;}.cls-8{fill:#f38c1d;}.cls-9{opacity:0.05;}.cls-10{fill:#1d91cd;}.cls-11{fill:#21a8ee;}.cls-12{opacity:0.01;}.cls-13{fill:#1a1a1a;}.cls-14{stroke:#fff;stroke-miterlimit:10;stroke-width:0.22px;}</style></defs><g class="cls-1"><g id="Layer_2" data-name="Layer 2"><g id="Layer_1-2" data-name="Layer 1"><path class="cls-2" d="M102.74,14A9.41,9.41,0,0,1,108,17.74c1.26,1.85,1.88,4.5,1.88,8q0,5.53-2,8.42a9.41,9.41,0,0,1-5.36,3.81,32.48,32.48,0,0,1-8.49.93H85V13h9.08A31.57,31.57,0,0,1,102.74,14Zm-1.83,15.89c.15-1.51.22-2.9.22-4.17a17,17,0,0,0-.34-3.84,4.74,4.74,0,0,0-1.2-2.29q-1.36-1.5-4.68-1.5-.59,0-1.77.09V33.22a23.14,23.14,0,0,0,2.41.09,23.74,23.74,0,0,0,3-.16,3.09,3.09,0,0,0,1.61-.47A5.31,5.31,0,0,0,100.91,29.86Z"/><path class="cls-2" d="M130,33.18c.27,0,.77,0,1.49-.09l.69,4.67a21.59,21.59,0,0,1-9.08,1.64c-3.48,0-6.16-.88-8-2.64s-2.79-4.4-2.79-7.94a19.65,19.65,0,0,1,.7-5.27A9,9,0,0,1,114.62,20a7.92,7.92,0,0,1,3.54-1.72,18.64,18.64,0,0,1,5.13-.73q4.08,0,6.13,1.45a6.79,6.79,0,0,1,2.68,4,30,30,0,0,1,.63,6.88q-3.09.18-6,.18h-6.44a3.32,3.32,0,0,0,.61,2.18,2.9,2.9,0,0,0,1.75.93,18.53,18.53,0,0,0,3.17.2C126.54,33.4,128,33.33,130,33.18Zm-9.72-9c-.09.7-.15,1.49-.18,2.36h2.36c1.42,0,2.45,0,3.09,0a5.77,5.77,0,0,0-.62-3.09,2.36,2.36,0,0,0-2.11-.91,4.38,4.38,0,0,0-2.13.5C120.52,23.05,120.38,23.45,120.29,24.14Z"/><path class="cls-2" d="M135.59,11.61l7.76-.32V38.85h-7.76Z"/><path class="cls-2" d="M156.84,30.27c0,.55,0,1.11,0,1.7a2,2,0,0,0,.27,1.12,4.33,4.33,0,0,0,2.23.31l1.54,0a26.89,26.89,0,0,1,.41,5,14.36,14.36,0,0,1-2.52.59,19.52,19.52,0,0,1-3.15.27,7.52,7.52,0,0,1-4.84-1.38,5.24,5.24,0,0,1-1.7-4.29V22.42h-3.41V18.29l3.41-.32,2-5,5.68-.31V18h4.81v4.45h-4.81Z"/><path class="cls-2" d="M176.4,38.85,175.68,36a6.51,6.51,0,0,1-5.81,3.41,7.24,7.24,0,0,1-5-1.71A6.06,6.06,0,0,1,163,32.9a5.26,5.26,0,0,1,1.11-3.33,5.86,5.86,0,0,1,3.06-2,32.74,32.74,0,0,1,7.86-.82c0-2-.09-3.06-.28-3.18a3.18,3.18,0,0,0-1.45-.18c-.51,0-1.23,0-2.13.09-1.46.06-3.42.23-5.9.5-.25-1.63-.43-3.39-.55-5.27q2.4-.5,5-.84a38.46,38.46,0,0,1,4.72-.34,10,10,0,0,1,5.45,1.21,5.45,5.45,0,0,1,2.36,3.15,17.91,17.91,0,0,1,.5,4.95l0,6.67.14,5.36Zm-1.4-5V30.5h-.37q-3.36,0-3.72.36a1.4,1.4,0,0,0-.34.68,3.4,3.4,0,0,0-.11.87,1.82,1.82,0,0,0,.5,1.49,2.34,2.34,0,0,0,1.54.41A7.74,7.74,0,0,0,175,33.86Z"/><path class="cls-3" d="M201.89,21.46A16.37,16.37,0,0,0,205,22.64a37.34,37.34,0,0,1,4.11,1.59,7.61,7.61,0,0,1,2.81,2.41,7,7,0,0,1,1.21,4.27q0,8.44-11,8.44a38.1,38.1,0,0,1-4.43-.32,44.7,44.7,0,0,1-4.74-.81c.06-.64.19-1.57.38-2.8a23.84,23.84,0,0,1,.57-2.74c1.06.15,2.66.33,4.79.54s3.75.32,4.84.32a2.58,2.58,0,0,0,1.13-.14,1.16,1.16,0,0,0,.43-.61,2.15,2.15,0,0,0,.16-.75,1.5,1.5,0,0,0-.86-1.38,18.44,18.44,0,0,0-3-1.16,26.4,26.4,0,0,1-4.13-1.59,7.46,7.46,0,0,1-4.09-7.08,9.1,9.1,0,0,1,.91-3.93A6.6,6.6,0,0,1,196,14.29a9.18,9.18,0,0,1,3-.95,21.21,21.21,0,0,1,4.26-.46,29.8,29.8,0,0,1,8.31,1c0,.6-.13,1.43-.29,2.49s-.34,2-.52,2.91l-1,0c-3.93-.27-6.45-.41-7.54-.41a3.1,3.1,0,0,0-.77,0,.84.84,0,0,0-.32.41,1.83,1.83,0,0,0-.13.73A1.65,1.65,0,0,0,201.89,21.46Z"/><path class="cls-3" d="M218.38,36.88q-2.72-2.57-2.71-8.11a22.27,22.27,0,0,1,.57-5.33,7.59,7.59,0,0,1,1.39-3.2,7.84,7.84,0,0,1,3.83-1.95,19.54,19.54,0,0,1,5.25-.78c3.9,0,6.68.84,8.35,2.5s2.5,4.33,2.5,8c0,3.94-.9,6.83-2.68,8.67s-4.57,2.77-8.36,2.77Q221.08,39.44,218.38,36.88Zm10.6-4a12.45,12.45,0,0,0,.54-4.42,18.76,18.76,0,0,0-.23-3.43,3.13,3.13,0,0,0-.84-1.77,2.66,2.66,0,0,0-1.88-.57c-1.21,0-1.91.11-2.09.32a3.9,3.9,0,0,0-.59,2,26.12,26.12,0,0,0-.23,3.49,10.91,10.91,0,0,0,.62,4.36,2.38,2.38,0,0,0,2.38,1.27A2.27,2.27,0,0,0,229,32.88Z"/><path class="cls-3" d="M250.09,17.56V18h4.81v4.45h-4.81V38.85h-7.77V22.42h-3.4v-4l3.4-.41v-.68a13,13,0,0,1,.55-3.82,5.06,5.06,0,0,1,1-2.18c.93-.78,2.93-1.18,6-1.18a48.68,48.68,0,0,1,5.58.37c0,.36-.05,1.09-.16,2.18s-.2,2-.29,2.77l-2,0a7.18,7.18,0,0,0-2.64.23A3.46,3.46,0,0,0,250.09,17.56Z"/><path class="cls-3" d="M266.48,30.27c0,.55,0,1.11,0,1.7a2,2,0,0,0,.27,1.12,4.3,4.3,0,0,0,2.23.31l1.54,0a27.76,27.76,0,0,1,.41,5,14.82,14.82,0,0,1-2.52.59,19.64,19.64,0,0,1-3.16.27,7.49,7.49,0,0,1-4.83-1.38,5.21,5.21,0,0,1-1.7-4.29V22.42h-3.41V18.29l3.41-.32,2-5,5.68-.31V18h4.81v4.45h-4.81Z"/><path class="cls-4" d="M4.07,24.19A28.56,28.56,0,0,1,59,24.86"/><path class="cls-5" d="M60,33.14A28.55,28.55,0,0,1,2.87,31.71"/><rect class="cls-3" x="0.04" y="28.88" width="5.66" height="5.66" rx="1.13" transform="matrix(0.03, -1, 1, 0.03, -28.9, 33.79)"/><path class="cls-4" d="M7.2,17.33A28.56,28.56,0,0,1,60,32.44"/><rect class="cls-2" x="57.13" y="29.61" width="5.66" height="5.66" rx="1.13" transform="translate(-0.04 0.08) rotate(-0.07)"/><path class="cls-6" d="M15.44,16.23v13a2.31,2.31,0,0,0,2.31,2.31H33.1a2.32,2.32,0,0,0,2.31-2.31V13.84a2.31,2.31,0,0,0-2.31-2.3h-13a2.31,2.31,0,0,1-2.3-2.31V2.31A2.31,2.31,0,0,0,15.52,0H6.21A2.31,2.31,0,0,0,3.9,2.31v9.31a2.31,2.31,0,0,0,2.31,2.3h6.92A2.31,2.31,0,0,1,15.44,16.23Z"/><g class="cls-7"><path class="cls-8" d="M21.7,13.07h13a2.18,2.18,0,0,1,.63.09,2.3,2.3,0,0,0-2.2-1.62h-13a2.31,2.31,0,0,1-.64-.1A2.33,2.33,0,0,0,21.7,13.07Z"/><path class="cls-8" d="M17,17.76a2.29,2.29,0,0,0-1.67-2.21,2.15,2.15,0,0,1,.11.68v13a2.29,2.29,0,0,0,1.67,2.21,2.15,2.15,0,0,1-.11-.68Z"/><path class="cls-8" d="M5.57,13.83a2.2,2.2,0,0,1-.1-.68V3.84A2.3,2.3,0,0,1,7.78,1.53h9.3a2.2,2.2,0,0,1,.64.09A2.3,2.3,0,0,0,15.52,0H6.21A2.31,2.31,0,0,0,3.9,2.31v9.31A2.31,2.31,0,0,0,5.57,13.83Z"/></g><path class="cls-2" d="M34.08,33.34H17.93a2.86,2.86,0,0,0-2.87,2.87V55.33a2.87,2.87,0,0,0,2.87,2.87H37.05a2.88,2.88,0,0,0,2.87-2.87V39.18a2.88,2.88,0,0,1,2.87-2.87h8.62a2.87,2.87,0,0,0,2.87-2.87V21.85A2.86,2.86,0,0,0,51.41,19H39.82A2.86,2.86,0,0,0,37,21.85v8.62A2.88,2.88,0,0,1,34.08,33.34Z"/><g class="cls-9"><path class="cls-10" d="M37,21.85v8.62a2.88,2.88,0,0,1-2.87,2.87H17.93a2.86,2.86,0,0,0-2.87,2.87V55.33a2.86,2.86,0,0,0,.8,2,3.05,3.05,0,0,1-.06-.6V37.6a2.87,2.87,0,0,1,2.87-2.87H34.82a2.88,2.88,0,0,0,2.87-2.87V23.24a2.86,2.86,0,0,1,2.87-2.87H52.15a2.88,2.88,0,0,1,2.07.88A2.87,2.87,0,0,0,51.41,19H39.82A2.86,2.86,0,0,0,37,21.85Z"/></g><path class="cls-11" d="M35.87,33.76H25.56a1.83,1.83,0,0,0-1.83,1.83V47.8a1.83,1.83,0,0,0,1.83,1.83H37.77A1.83,1.83,0,0,0,39.6,47.8V37.49a1.83,1.83,0,0,1,1.83-1.83h5.5a1.84,1.84,0,0,0,1.84-1.84v-7.4a1.83,1.83,0,0,0-1.84-1.83H39.54a1.83,1.83,0,0,0-1.84,1.83v5.5A1.83,1.83,0,0,1,35.87,33.76Z"/><g class="cls-12"><path class="cls-13" d="M25.56,49.63h.16a1.84,1.84,0,0,1-.61-1.36V36.06A1.83,1.83,0,0,1,27,34.23h10.3a1.83,1.83,0,0,0,1.84-1.83V26.9a1.83,1.83,0,0,1,1.83-1.84h7.24a1.84,1.84,0,0,0-1.23-.47H39.54a1.83,1.83,0,0,0-1.84,1.83v5.5a1.83,1.83,0,0,1-1.83,1.84H25.56a1.83,1.83,0,0,0-1.83,1.83V47.8A1.83,1.83,0,0,0,25.56,49.63Z"/></g><path class="cls-3" d="M93.82,49v3.79a.24.24,0,0,0,0,.11A.51.51,0,0,0,94,53L94,53h.8v1.48H94a2.09,2.09,0,0,1-.72-.11,2,2,0,0,1-.42-.17,1.76,1.76,0,0,1-.42.17,2.07,2.07,0,0,1-.71.11H88a2.16,2.16,0,0,1-.86-.16,2.12,2.12,0,0,1-.68-.45,1.92,1.92,0,0,1-.39-.57,1.85,1.85,0,0,1-.14-.4h0V50.13h1.86v2.51a.54.54,0,0,0,0,.2.38.38,0,0,0,.09.15l.07,0h3.82l.08,0a.47.47,0,0,0,.12-.27V49ZM88,47.78a.86.86,0,0,1,.08-.36,1.17,1.17,0,0,1,.19-.3.91.91,0,0,1,.29-.19.81.81,0,0,1,.35-.07.8.8,0,0,1,.34.07.81.81,0,0,1,.49.49.85.85,0,0,1,0,.72.91.91,0,0,1-.19.29,1.17,1.17,0,0,1-.3.19.8.8,0,0,1-.34.07.81.81,0,0,1-.35-.07.85.85,0,0,1-.48-.48A.86.86,0,0,1,88,47.78Zm2,0a.73.73,0,0,1,.08-.36,1,1,0,0,1,.2-.3.77.77,0,0,1,.28-.19.86.86,0,0,1,.36-.07.77.77,0,0,1,.34.07.81.81,0,0,1,.29.19,1.17,1.17,0,0,1,.19.3,1,1,0,0,1,0,.72,1.12,1.12,0,0,1-.19.29,1,1,0,0,1-.29.19.77.77,0,0,1-.34.07.86.86,0,0,1-.36-.07.92.92,0,0,1-.28-.19.94.94,0,0,1-.2-.29A.73.73,0,0,1,90,47.78Z"/><path class="cls-3" d="M100.61,52.64a1.66,1.66,0,0,1-.15.7,1.61,1.61,0,0,1-.39.57,2.08,2.08,0,0,1-1.53.61H94.47V53h1.07a0,0,0,0,0,0,0,.29.29,0,0,0,0-.09,2.58,2.58,0,0,1-.1-.45,4.12,4.12,0,0,1,0-.62.57.57,0,0,1,0-.14c0-.17,0-.35,0-.53a3.8,3.8,0,0,1,.12-.86,3.13,3.13,0,0,1,.31-.72,2.39,2.39,0,0,1,.45-.54,2.22,2.22,0,0,1,.56-.38,2.52,2.52,0,0,1,.58-.21A3.41,3.41,0,0,1,98,48.4h0a2.65,2.65,0,0,1,1.18.27,2.78,2.78,0,0,1,.54.38,2,2,0,0,1,.44.53,2.45,2.45,0,0,1,.29.68,3,3,0,0,1,.11.81ZM97,47a.73.73,0,0,1,.08-.36.88.88,0,0,1,.2-.3,1,1,0,0,1,.28-.2,1.16,1.16,0,0,1,.37-.07.93.93,0,0,1,.33.07,1,1,0,0,1,.29.2,1,1,0,0,1,.19.3,1,1,0,0,1,0,.72,1.07,1.07,0,0,1-.19.28,1,1,0,0,1-.29.2.93.93,0,0,1-.33.07,1.16,1.16,0,0,1-.37-.07,1,1,0,0,1-.28-.2.9.9,0,0,1-.2-.28A.73.73,0,0,1,97,47ZM98.55,53l.08,0a.38.38,0,0,0,.09-.15.73.73,0,0,0,0-.25V51.07a1.55,1.55,0,0,0-.16-.77.89.89,0,0,0-.36-.38.53.53,0,0,0-.2-.05.45.45,0,0,0-.18,0,1.25,1.25,0,0,0-.19.15.86.86,0,0,0-.18.26,1.43,1.43,0,0,0-.14.37,2.31,2.31,0,0,0,0,.49c0,.14,0,.27,0,.4a1,1,0,0,0,0,.17c0,.18,0,.34,0,.47a2,2,0,0,0,.08.33.66.66,0,0,0,.12.22l.11.1a.41.41,0,0,0,.11.07l.2.06.33,0Z"/><path class="cls-3" d="M107.81,54.52H107a2.54,2.54,0,0,1-.13.65,3,3,0,0,1-.32.72,2.1,2.1,0,0,1-.47.55,2.76,2.76,0,0,1-.58.38,3.06,3.06,0,0,1-.66.24c-.22,0-.45.09-.68.12a5.53,5.53,0,0,1-.71,0h-1V55.75h.84l.49,0,.42-.07a1.29,1.29,0,0,0,.33-.1.82.82,0,0,0,.22-.16.86.86,0,0,0,.19-.25,1.51,1.51,0,0,0,.14-.38l.06-.24a5.74,5.74,0,0,1-.71-.06,4.74,4.74,0,0,1-.83-.15,2.94,2.94,0,0,1-.65-.26,2.44,2.44,0,0,1-.5-.38,2,2,0,0,1-.37-.53,3,3,0,0,1-.18-.6,3.66,3.66,0,0,1-.06-.68v-.71a2.93,2.93,0,0,1,.12-.86,3.13,3.13,0,0,1,.31-.72,2.39,2.39,0,0,1,.45-.54,2.17,2.17,0,0,1,.55-.38,2.51,2.51,0,0,1,1.14-.26h.06a2.68,2.68,0,0,1,1.18.27,3.56,3.56,0,0,1,.54.38,2.53,2.53,0,0,1,.44.53,2.77,2.77,0,0,1,.28.68,2.65,2.65,0,0,1,.11.81v2h.84Zm-2.7-3.45a1.67,1.67,0,0,0-.15-.77,1,1,0,0,0-.37-.38.53.53,0,0,0-.2-.05.49.49,0,0,0-.18,0,1,1,0,0,0-.38.42,1.89,1.89,0,0,0-.18.85c0,.14,0,.27,0,.4a1,1,0,0,0,0,.17c0,.18,0,.34,0,.47a2,2,0,0,0,.08.33.53.53,0,0,0,.12.21.9.9,0,0,0,.48.21,3.68,3.68,0,0,0,.76.09Z"/><path class="cls-3" d="M116.12,52.64a1.66,1.66,0,0,1-.15.7,1.61,1.61,0,0,1-.39.57,2.08,2.08,0,0,1-1.53.61h-.54a2.13,2.13,0,0,1-.72-.11,1.62,1.62,0,0,1-.41-.17,2.47,2.47,0,0,1-.43.17,2.07,2.07,0,0,1-.71.11h-.57a2.09,2.09,0,0,1-.72-.11,2,2,0,0,1-.42-.17,2,2,0,0,1-.42.17,2.09,2.09,0,0,1-.72.11h-.94V53h1l.08,0a.47.47,0,0,0,.12-.27V48.93h1.86v3.71a.25.25,0,0,1,0,.11l0,.11.09.13.08,0h.58s0,0,.08,0a.54.54,0,0,0,.13-.24.8.8,0,0,1,0-.11V48.93h1.86v3.79a.38.38,0,0,0,.13.26l.07.06h.56l.08,0a.38.38,0,0,0,.09-.15.58.58,0,0,0,0-.21v-3.7h1.86Z"/><path class="cls-2" d="M122.15,46.63v6a.4.4,0,0,0,0,.2.28.28,0,0,0,.09.14l.07.06h1.13v1.48h-1.12a2.15,2.15,0,0,1-.85-.16,2,2,0,0,1-.68-.45,1.92,1.92,0,0,1-.39-.57,1.82,1.82,0,0,1-.14-.7v-6Z"/><path class="cls-2" d="M126.56,48.93v3.71a.25.25,0,0,1,0,.11l0,.11.09.13.08,0H128v1.48h-1.26a2.09,2.09,0,0,1-.72-.11,2,2,0,0,1-.42-.17,2,2,0,0,1-.42.17,2.09,2.09,0,0,1-.72.11h-1.36V53h1.37l.08,0a.47.47,0,0,0,.12-.27V48.93ZM123.71,47a.86.86,0,0,1,.08-.36,1,1,0,0,1,.2-.3,1,1,0,0,1,.28-.2,1,1,0,0,1,.35-.07,1,1,0,0,1,.35.07,1.15,1.15,0,0,1,.29.2,1.21,1.21,0,0,1,.2.3,1,1,0,0,1,0,.72,1,1,0,0,1-.49.48.84.84,0,0,1-.35.07.81.81,0,0,1-.35-.07,1,1,0,0,1-.48-.48A.86.86,0,0,1,123.71,47Zm2,0a.73.73,0,0,1,.08-.36,1,1,0,0,1,.2-.3,1,1,0,0,1,.29-.2,1,1,0,0,1,.36-.07.93.93,0,0,1,.33.07,1,1,0,0,1,.29.2,1.17,1.17,0,0,1,.19.3,1,1,0,0,1,0,.72.92.92,0,0,1-.19.28.84.84,0,0,1-.29.2.75.75,0,0,1-.33.07.86.86,0,0,1-.36-.07.84.84,0,0,1-.29-.2.8.8,0,0,1-.2-.28A.73.73,0,0,1,125.71,47Z"/><path class="cls-2" d="M131,46.63v6a1.82,1.82,0,0,1-.14.7,1.92,1.92,0,0,1-.39.57,2.08,2.08,0,0,1-.67.45,2.23,2.23,0,0,1-.86.16h-1.23V53h1.24l.07,0a.38.38,0,0,0,.09-.15.4.4,0,0,0,0-.2v-6Z"/><path class="cls-2" d="M133.3,48.32a11.24,11.24,0,0,1,1.16.18,3.57,3.57,0,0,1,.62.22,2.46,2.46,0,0,1,.62.39,3.14,3.14,0,0,1,.56.63,3.64,3.64,0,0,1,.42.91,5.83,5.83,0,0,1,.24,1.23q0,.32,0,.66c0,.28,0,.59,0,.91l0,.39a3,3,0,0,1-.46.21l-.29.12-.33.11a3,3,0,0,1-.38.09,5.93,5.93,0,0,1-.72.1c-.2,0-.41,0-.61,0H134a6,6,0,0,1-.75-.06c-.24,0-.59-.1-1.06-.21l.69-1.38A5,5,0,0,0,134,53h.06a5.89,5.89,0,0,0,1-.09c0-.1,0-.24,0-.43a4.7,4.7,0,0,0-.05-.79,3.62,3.62,0,0,0-.23-.92,1.57,1.57,0,0,0-.35-.53,1.33,1.33,0,0,0-.38-.27,8.47,8.47,0,0,0-1.37-.24Z"/><line class="cls-14" x1="182.83" y1="43.99" x2="84.78" y2="43.99"/></g></g></g></svg>